<?xml version="1.0" encoding="UTF-8"?>
<svg id="Layer_2" data-name="Layer 2" xmlns="http://www.w3.org/2000/svg" xmlns:xlink="http://www.w3.org/1999/xlink" viewBox="0 0 500 500">
  <defs>
    <style>
      .cls-1 {
        fill: #fff;
      }

      .cls-2 {
        fill: url(#linear-gradient);
      }
    </style>
    <linearGradient id="linear-gradient" x1="0" y1="250" x2="500" y2="250" gradientUnits="userSpaceOnUse">
      <stop offset="0" stop-color="#306bff"/>
      <stop offset="1" stop-color="#b152f7"/>
    </linearGradient>
  </defs>
  <g id="Artwork">
    <g>
      <rect class="cls-2" x="0" y="0" width="500" height="500" rx="125" ry="125"/>
      <path class="cls-1" d="m473.51,71.01l-16.32,58.61c-3.74,13.45-16,22.76-29.96,22.76h-146.94c-4.63,0-8.68,3.08-9.92,7.54l-11.17,40.12c-1.83,6.56,3.11,13.06,9.92,13.06h101.02c6.81,0,11.75,6.5,9.92,13.06l-18.69,67.14c-1.24,4.46-5.3,7.54-9.92,7.54h-112.49c-4.63,0-8.68,3.08-9.92,7.54l-40.67,146.08c-.92,3.31-3.94,5.6-7.38,5.6h-.06c-40.66,0-70.11-38.77-59.2-77.94l18.99-68.21c1.83-6.56-3.11-13.06-9.92-13.06h-56.55c-6.81,0-11.75-6.5-9.92-13.06l18.69-67.14c1.24-4.46,5.3-7.54,9.92-7.54h68.02c4.63,0,8.68-3.08,9.92-7.54l11.17-40.12c1.83-6.56-3.11-13.06-9.92-13.06H26.41c-6.81,0-11.75-6.5-9.92-13.06l14.59-52.38c4.77-17.13,20.37-28.98,38.15-28.98h165.18s10.7,2.28,12.06,10.93c.24,1.55,2.19,2.09,3.17.86,3.95-4.92,10.61-11.79,17.04-11.79h196.91c6.81,0,11.75,6.5,9.92,13.06Z"/>
    </g>
  </g>
</svg>